Abduction_states
version=1
nRows=8
nColumns=41
inDegrees=yes

# SIMM Motion File Header:
name Abduction_states
datacolumns 41
datarows 8
otherdata 1
range 2.07411177 2.50163370
endheader
time	/jointset/ground_thorax/thorax_tilt/value	/jointset/ground_thorax/thorax_tilt/speed	/jointset/ground_thorax/thorax_list/value	/jointset/ground_thorax/thorax_list/speed	/jointset/ground_thorax/thorax_rotation/value	/jointset/ground_thorax/thorax_rotation/speed	/jointset/ground_thorax/thorax_tx/value	/jointset/ground_thorax/thorax_tx/speed	/jointset/ground_thorax/thorax_ty/value	/jointset/ground_thorax/thorax_ty/speed	/jointset/ground_thorax/thorax_tz/value	/jointset/ground_thorax/thorax_tz/speed	/jointset/sternoclavicular/sternoclavicular_r2/value	/jointset/sternoclavicular/sternoclavicular_r2/speed	/jointset/sternoclavicular/sternoclavicular_r3/value	/jointset/sternoclavicular/sternoclavicular_r3/speed	/jointset/unrotscap/unrotscap_r3/value	/jointset/unrotscap/unrotscap_r3/speed	/jointset/unrotscap/unrotscap_r2/value	/jointset/unrotscap/unrotscap_r2/speed	/jointset/acromioclavicular/acromioclavicular_r2/value	/jointset/acromioclavicular/acromioclavicular_r2/speed	/jointset/acromioclavicular/acromioclavicular_r3/value	/jointset/acromioclavicular/acromioclavicular_r3/speed	/jointset/acromioclavicular/acromioclavicular_r1/value	/jointset/acromioclavicular/acromioclavicular_r1/speed	/jointset/unrothum/unrothum_r1/value	/jointset/unrothum/unrothum_r1/speed	/jointset/unrothum/unrothum_r3/value	/jointset/unrothum/unrothum_r3/speed	/jointset/unrothum/unrothum_r2/value	/jointset/unrothum/unrothum_r2/speed	/jointset/shoulder0/elv_angle/value	/jointset/shoulder0/elv_angle/speed	/jointset/shoulder1/shoulder_elv/value	/jointset/shoulder1/shoulder_elv/speed	/jointset/shoulder1/shoulder1_r2/value	/jointset/shoulder1/shoulder1_r2/speed	/jointset/shoulder2/shoulder_rot/value	/jointset/shoulder2/shoulder_rot/speed
      2.07411177	     -0.00000000	     -0.00000000	     -0.00000000	      0.00000000	     -0.00000000	     -0.00000000	      0.00000000	      0.00000000	     -0.00000000	     -0.00000000	      0.00000000	     -0.00000000	    -17.58770605	     16.28977319	      7.44931632	     -6.89957365	     -7.44931632	      6.89957365	     17.58770605	    -16.28977319	     -3.56112530	      3.29832232	     28.77937789	    -26.65552500	     12.93642336	    -11.98174462	    -12.93642336	     11.98174462	    -28.77937789	     26.65552500	      3.56112530	     -3.29832232	     30.00000000	     -0.00000000	     72.67715956	    -67.31374983	    -30.00000000	     -0.00000000	     -0.00000000	     -0.00000000
      2.11820245	     -0.00000000	     -0.00000000	     -0.00000000	     -0.00000000	     -0.00000000	     -0.00000000	      0.00000000	      0.00000000	     -0.00000000	     -0.00000000	      0.00000000	     -0.00000000	    -16.84091479	     17.43809340	      7.13301104	     -7.38594751	     -7.13301104	      7.38594751	     16.84091479	    -17.43809340	     -3.40991642	      3.53083201	     27.55737726	    -28.53456149	     12.38713013	    -12.82637760	    -12.38713013	     12.82637760	    -27.55737726	     28.53456149	      3.40991642	     -3.53083201	     30.00000000	     -0.00000000	     69.59121603	    -72.05891963	    -30.00000000	     -0.00000000	     -0.00000000	     -0.00000000
      2.17351926	     -0.00000000	     -0.00000000	     -0.00000000	     -0.00000000	     -0.00000000	     -0.00000000	      0.00000000	      0.00000000	     -0.00000000	     -0.00000000	      0.00000000	     -0.00000000	    -15.86045228	     17.86150554	      6.71773372	     -7.56528477	     -6.71773372	      7.56528477	     15.86045228	    -17.86150554	     -3.21139424	      3.61656370	     25.95301220	    -29.22740556	     11.66596285	    -13.13781324	    -11.66596285	     13.13781324	    -25.95301220	     29.22740556	      3.21139424	     -3.61656370	     30.00000000	     -0.00000000	     65.53967971	    -73.80857312	    -30.00000000	     -0.00000000	     -0.00000000	     -0.00000000
      2.22883607	     -0.00000000	     -0.00000000	     -0.00000000	     -0.00000000	     -0.00000000	     -0.00000000	      0.00000000	      0.00000000	     -0.00000000	     -0.00000000	      0.00000000	     -0.00000000	    -14.87695269	     17.62008328	      6.30117004	     -7.46302977	     -6.30117004	      7.46302977	     14.87695269	    -17.62008328	     -3.01225711	      3.56768098	     24.34367745	    -28.83235788	     10.94256168	    -12.96023804	    -10.94256168	     12.96023804	    -24.34367745	     28.83235788	      3.01225711	     -3.56768098	     30.00000000	     -0.00000000	     61.47559330	    -72.81095103	    -30.00000000	     -0.00000000	     -0.00000000	     -0.00000000
      2.28415288	     -0.00000000	     -0.00000000	     -0.00000000	     -0.00000000	     -0.00000000	     -0.00000000	      0.00000000	      0.00000000	     -0.00000000	     -0.00000000	      0.00000000	     -0.00000000	    -13.91690481	     17.05592730	      5.89453939	     -7.22408012	     -5.89453939	      7.22408012	     13.91690481	    -17.05592730	     -2.81786844	      3.45345175	     22.77271758	    -27.90920974	     10.23641014	    -12.54527996	    -10.23641014	     12.54527996	    -22.77271758	     27.90920974	      2.81786844	     -3.45345175	     30.00000000	     -0.00000000	     57.50841576	    -70.47970589	    -30.00000000	     -0.00000000	     -0.00000000	     -0.00000000
      2.33946969	     -0.00000000	     -0.00000000	     -0.00000000	     -0.00000000	     -0.00000000	     -0.00000000	      0.00000000	      0.00000000	     -0.00000000	     -0.00000000	      0.00000000	     -0.00000000	    -12.99248598	     16.35257709	      5.50299951	     -6.92617440	     -5.50299951	      6.92617440	     12.99248598	    -16.35257709	     -2.63069387	      3.31103873	     21.26005873	    -26.75829323	      9.55646510	    -12.02793927	     -9.55646510	     12.02793927	    -21.26005873	     26.75829323	      2.63069387	     -3.31103873	     30.00000000	     -0.00000000	     53.68846703	    -67.57327256	    -30.00000000	     -0.00000000	     -0.00000000	     -0.00000000
      2.41150387	     -0.00000000	     -0.00000000	     -0.00000000	     -0.00000000	     -0.00000000	     -0.00000000	      0.00000000	      0.00000000	     -0.00000000	     -0.00000000	      0.00000000	     -0.00000000	    -11.84996901	     15.36115372	      5.01908363	     -6.50625458	     -5.01908363	      6.50625458	     11.84996901	    -15.36115372	     -2.39935920	      3.11029721	     19.39051830	    -25.13599252	      8.71610063	    -11.29870986	     -8.71610063	     11.29870986	    -19.39051830	     25.13599252	      2.39935920	     -3.11029721	     30.00000000	     -0.00000000	     48.96727781	    -63.47644296	    -30.00000000	     -0.00000000	     -0.00000000	     -0.00000000
      2.50163370	     -0.00000000	     -0.00000000	     -0.00000000	     -0.00000000	     -0.00000000	     -0.00000000	      0.00000000	      0.00000000	     -0.00000000	     -0.00000000	      0.00000000	     -0.00000000	    -10.52268711	     14.08952646	      4.45691010	     -5.96765372	     -4.45691010	      5.96765372	     10.52268711	    -14.08952646	     -2.13061369	      2.85282054	     17.21864055	    -23.05518441	      7.73983457	    -10.36337989	     -7.73983457	     10.36337989	    -17.21864055	     23.05518441	      2.13061369	     -2.85282054	     30.00000000	     -0.00000000	     43.48258992	    -58.22173512	    -30.00000000	     -0.00000000	     -0.00000000	     -0.00000000
